<svg viewBox="0 0 330 200" xmlns="http://www.w3.org/2000/svg"><g><g><g><g><g><line x1="40" y1="178" x2="35" y2="178" style="visibility: inherit;" fill="rgb(0, 0, 0)" stroke="rgb(204, 204, 204)" stroke-width="1px"></line><line x1="40" y1="160.20000000000002" x2="35" y2="160.20000000000002" style="visibility: inherit;" fill="rgb(0, 0, 0)" stroke="rgb(204, 204, 204)" stroke-width="1px"></line><line x1="40" y1="142.4" x2="35" y2="142.4" style="visibility: inherit;" fill="rgb(0, 0, 0)" stroke="rgb(204, 204, 204)" stroke-width="1px"></line><line x1="40" y1="124.6" x2="35" y2="124.6" style="visibility: inherit;" fill="rgb(0, 0, 0)" stroke="rgb(204, 204, 204)" stroke-width="1px"></line><line x1="40" y1="106.8" x2="35" y2="106.8" style="visibility: inherit;" fill="rgb(0, 0, 0)" stroke="rgb(204, 204, 204)" stroke-width="1px"></line><line x1="40" y1="89" x2="35" y2="89" style="visibility: inherit;" fill="rgb(0, 0, 0)" stroke="rgb(204, 204, 204)" stroke-width="1px"></line><line x1="40" y1="71.2" x2="35" y2="71.2" style="visibility: inherit;" fill="rgb(0, 0, 0)" stroke="rgb(204, 204, 204)" stroke-width="1px"></line><line x1="40" y1="53.400000000000006" x2="35" y2="53.400000000000006" style="visibility: inherit;" fill="rgb(0, 0, 0)" stroke="rgb(204, 204, 204)" stroke-width="1px"></line><line x1="40" y1="35.599999999999994" x2="35" y2="35.599999999999994" style="visibility: inherit;" fill="rgb(0, 0, 0)" stroke="rgb(204, 204, 204)" stroke-width="1px"></line><line x1="40" y1="17.799999999999997" x2="35" y2="17.799999999999997" style="visibility: inherit;" fill="rgb(0, 0, 0)" stroke="rgb(204, 204, 204)" stroke-width="1px"></line><line x1="40" y1="0" x2="35" y2="0" style="visibility: inherit;" fill="rgb(0, 0, 0)" stroke="rgb(204, 204, 204)" stroke-width="1px"></line></g><g transform="translate(30, 0)"><text x="0" y="178" dx="0em" dy="0.3em" style="text-anchor: end; visibility: hidden; font-family: Roboto, sans-serif; font-size: 12px; font-weight: 200;" fill="rgb(50, 49, 63)" stroke="none" stroke-width="1px">-50</text><text x="0" y="160.20000000000002" dx="0em" dy="0.3em" style="text-anchor: end; visibility: inherit; font-family: Roboto, sans-serif; font-size: 12px; font-weight: 200;" fill="rgb(50, 49, 63)" stroke="none" stroke-width="1px">0</text><text x="0" y="142.4" dx="0em" dy="0.3em" style="text-anchor: end; visibility: hidden; font-family: Roboto, sans-serif; font-size: 12px; font-weight: 200;" fill="rgb(50, 49, 63)" stroke="none" stroke-width="1px">50</text><text x="0" y="124.6" dx="0em" dy="0.3em" style="text-anchor: end; visibility: inherit; font-family: Roboto, sans-serif; font-size: 12px; font-weight: 200;" fill="rgb(50, 49, 63)" stroke="none" stroke-width="1px">100</text><text x="0" y="106.8" dx="0em" dy="0.3em" style="text-anchor: end; visibility: hidden; font-family: Roboto, sans-serif; font-size: 12px; font-weight: 200;" fill="rgb(50, 49, 63)" stroke="none" stroke-width="1px">150</text><text x="0" y="89" dx="0em" dy="0.3em" style="text-anchor: end; visibility: inherit; font-family: Roboto, sans-serif; font-size: 12px; font-weight: 200;" fill="rgb(50, 49, 63)" stroke="none" stroke-width="1px">200</text><text x="0" y="71.2" dx="0em" dy="0.3em" style="text-anchor: end; visibility: hidden; font-family: Roboto, sans-serif; font-size: 12px; font-weight: 200;" fill="rgb(50, 49, 63)" stroke="none" stroke-width="1px">250</text><text x="0" y="53.400000000000006" dx="0em" dy="0.3em" style="text-anchor: end; visibility: inherit; font-family: Roboto, sans-serif; font-size: 12px; font-weight: 200;" fill="rgb(50, 49, 63)" stroke="none" stroke-width="1px">300</text><text x="0" y="35.599999999999994" dx="0em" dy="0.3em" style="text-anchor: end; visibility: hidden; font-family: Roboto, sans-serif; font-size: 12px; font-weight: 200;" fill="rgb(50, 49, 63)" stroke="none" stroke-width="1px">350</text><text x="0" y="17.799999999999997" dx="0em" dy="0.3em" style="text-anchor: end; visibility: inherit; font-family: Roboto, sans-serif; font-size: 12px; font-weight: 200;" fill="rgb(50, 49, 63)" stroke="none" stroke-width="1px">400</text><text x="0" y="0" dx="0em" dy="0.3em" style="text-anchor: end; visibility: hidden; font-family: Roboto, sans-serif; font-size: 12px; font-weight: 200;" fill="rgb(50, 49, 63)" stroke="none" stroke-width="1px">450</text></g><line x1="40" y1="0" x2="40" y2="178" fill="rgb(0, 0, 0)" stroke="rgb(204, 204, 204)" stroke-width="1px"></line></g></g><g transform="translate(40, 0)" clip-path="url(#clip_0)"><clipPath id="clip_0"><rect width="290" height="178"></rect></clipPath><g><g><g><line x1="0" y1="0" x2="0" y2="178" fill="rgb(0, 0, 0)" stroke="rgb(60, 60, 60)" stroke-width="1px" opacity="0.25"></line><line x1="32.22222222222222" y1="0" x2="32.22222222222222" y2="178" fill="rgb(0, 0, 0)" stroke="rgb(60, 60, 60)" stroke-width="1px" opacity="0.25"></line><line x1="64.44444444444444" y1="0" x2="64.44444444444444" y2="178" fill="rgb(0, 0, 0)" stroke="rgb(60, 60, 60)" stroke-width="1px" opacity="0.25"></line><line x1="96.66666666666666" y1="0" x2="96.66666666666666" y2="178" fill="rgb(0, 0, 0)" stroke="rgb(60, 60, 60)" stroke-width="1px" opacity="0.25"></line><line x1="128.88888888888889" y1="0" x2="128.88888888888889" y2="178" fill="rgb(0, 0, 0)" stroke="rgb(60, 60, 60)" stroke-width="1px" opacity="0.25"></line><line x1="161.11111111111111" y1="0" x2="161.11111111111111" y2="178" fill="rgb(0, 0, 0)" stroke="rgb(60, 60, 60)" stroke-width="1px" opacity="0.25"></line><line x1="193.33333333333331" y1="0" x2="193.33333333333331" y2="178" fill="rgb(0, 0, 0)" stroke="rgb(60, 60, 60)" stroke-width="1px" opacity="0.25"></line><line x1="225.55555555555557" y1="0" x2="225.55555555555557" y2="178" fill="rgb(0, 0, 0)" stroke="rgb(60, 60, 60)" stroke-width="1px" opacity="0.25"></line><line x1="257.77777777777777" y1="0" x2="257.77777777777777" y2="178" fill="rgb(0, 0, 0)" stroke="rgb(60, 60, 60)" stroke-width="1px" opacity="0.25"></line><line x1="290" y1="0" x2="290" y2="178" fill="rgb(0, 0, 0)" stroke="rgb(60, 60, 60)" stroke-width="1px" opacity="0.25"></line></g><g><line x1="0" y1="178" x2="290" y2="178" fill="rgb(0, 0, 0)" stroke="rgb(60, 60, 60)" stroke-width="1px" opacity="0.25"></line><line x1="0" y1="160.20000000000002" x2="290" y2="160.20000000000002" fill="rgb(0, 0, 0)" stroke="rgb(60, 60, 60)" stroke-width="1px" opacity="0.25"></line><line x1="0" y1="142.4" x2="290" y2="142.4" fill="rgb(0, 0, 0)" stroke="rgb(60, 60, 60)" stroke-width="1px" opacity="0.25"></line><line x1="0" y1="124.6" x2="290" y2="124.6" fill="rgb(0, 0, 0)" stroke="rgb(60, 60, 60)" stroke-width="1px" opacity="0.25"></line><line x1="0" y1="106.8" x2="290" y2="106.8" fill="rgb(0, 0, 0)" stroke="rgb(60, 60, 60)" stroke-width="1px" opacity="0.25"></line><line x1="0" y1="89" x2="290" y2="89" fill="rgb(0, 0, 0)" stroke="rgb(60, 60, 60)" stroke-width="1px" opacity="0.25"></line><line x1="0" y1="71.2" x2="290" y2="71.2" fill="rgb(0, 0, 0)" stroke="rgb(60, 60, 60)" stroke-width="1px" opacity="0.25"></line><line x1="0" y1="53.400000000000006" x2="290" y2="53.400000000000006" fill="rgb(0, 0, 0)" stroke="rgb(60, 60, 60)" stroke-width="1px" opacity="0.25"></line><line x1="0" y1="35.599999999999994" x2="290" y2="35.599999999999994" fill="rgb(0, 0, 0)" stroke="rgb(60, 60, 60)" stroke-width="1px" opacity="0.25"></line><line x1="0" y1="17.799999999999997" x2="290" y2="17.799999999999997" fill="rgb(0, 0, 0)" stroke="rgb(60, 60, 60)" stroke-width="1px" opacity="0.25"></line><line x1="0" y1="0" x2="290" y2="0" fill="rgb(0, 0, 0)" stroke="rgb(60, 60, 60)" stroke-width="1px" opacity="0.25"></line></g></g></g><g><g><line x1="0" y1="160.20000000000002" x2="290" y2="160.20000000000002" fill="rgb(0, 0, 0)" stroke="rgb(153, 153, 153)" stroke-width="1.5px"></line></g></g><g><g><line x1="32.22222222222222" y1="0" x2="32.22222222222222" y2="178" fill="rgb(0, 0, 0)" stroke="rgb(153, 153, 153)" stroke-width="1.5px"></line></g></g><g><g><g><g><g><path stroke="rgb(255, 112, 67)" stroke-width="2px" d="M32.22222222222222,23.845611816406276L35.44444444444444,33.34292871093751L38.666666666666664,18.148942666812836L41.888888888888886,26.370477714089787L45.111111111111114,17.995725093166502L48.33333333333333,29.450217729578714L51.55555555555556,35.14690237441144L54.77777777777778,34.43977961434798L58,38.2111820423342L61.22222222222222,39.89196328245376L64.44444444444444,39.96470255878475L67.66666666666667,39.06024941733628L70.88888888888889,42.46187404887373L74.1111111111111,42.20195893260979L77.33333333333333,49.235157947730066L80.55555555555556,51.68496850430879L83.77777777777777,54.978617171731635L87,61.021956207844305L90.22222222222223,64.78182244030975L93.44444444444446,67.0651287521229L96.66666666666666,68.55708478492711L99.88888888888889,73.8201242211265L103.11111111111111,79.52960541319008L106.33333333333333,82.83136651498754L109.55555555555556,80.4457861003515L112.77777777777779,87.60359566211834L116,88.38786098316214L119.22222222222221,90.34253033907656L122.44444444444444,94.02483225552665L125.66666666666667,93.89755352439674L128.88888888888889,95.70472944907628L132.11111111111111,95.70089242988259L135.33333333333334,96.39433080354259L138.55555555555557,97.46752063201433L141.77777777777777,99.59163534052833L145,98.80700785638025L148.2222222222222,99.85189964216961L151.44444444444446,100.40345848852168L154.66666666666666,101.56532048144372L157.88888888888889,100.99922434377355L161.11111111111111,102.30087137488626L164.33333333333334,102.79687707321732L167.55555555555554,101.89469487159957L170.77777777777777,101.90559187413349L174,103.12844240488064L177.22222222222223,102.79201029154024L180.44444444444446,103.05291625794172L183.66666666666666,104.80569526261688L186.8888888888889,101.61403561455838L190.11111111111111,102.66417825350915L193.33333333333331,103.735376605431L196.55555555555557,105.09124288220785L199.77777777777777,105.25892597834843L203,106.25168044052572L206.22222222222223,104.71279110122853L209.44444444444443,104.54081218515111L212.66666666666666,105.56550427886434L215.88888888888889,106.45970261614687L219.11111111111111,107.30519893785224L222.33333333333334,105.86713620841441L225.55555555555557,108.01121441547839L228.77777777777777,108.13477291198235L232,108.29667817590035L235.22222222222223,108.18288742311834L238.44444444444443,108.69694805445695L241.66666666666669,109.57167300747884L244.88888888888889,109.58907108964357L248.1111111111111,108.197990261208L251.33333333333334,109.46550394676387L254.55555555555554,110.09318791493332L257.77777777777777,109.11668757806156L261,109.58686711226662L264.22222222222223,110.14477922732091L267.44444444444446,109.73927073463473L270.6666666666667,109.95027630796834" style="fill: none;" fill="none"></path></g></g></g></g><g opacity="0.2"><g><g><g><path stroke="rgb(255, 112, 67)" stroke-width="2px" d="M32.22222222222222,23.845611816406254L35.44444444444444,39.04131884765626L38.666666666666664,3.562716064453128L41.888888888888886,36.039002929687506L45.111111111111114,7.061648071289058L48.33333333333333,45.295904663085935L51.55555555555556,43.29325256347656L54.77777777777778,33.40878784179688L58,43.77326806640625L61.22222222222222,42.38772753906249L64.44444444444444,40.07315173339845L67.66666666666667,37.708491699218754L70.88888888888889,47.55320410156249L74.1111111111111,41.81259545898438L77.33333333333333,59.77668920898437L80.55555555555556,55.35795654296875L83.77777777777777,59.9176964111328L87,70.08543035888673L90.22222222222223,70.42104901123047L93.44444444444446,70.48987951660155L96.66666666666666,70.79493701171876L99.88888888888889,81.71451019287109L103.11111111111111,88.09371447753907L106.33333333333333,87.78396905517577L109.55555555555556,76.86743243408203L112.77777777777779,98.34027947998047L116,89.56425695800782L119.22222222222221,93.27453137207031L122.44444444444444,99.54828173828126L125.66666666666667,93.70663549804688L128.88888888888889,98.4154927368164L132.11111111111111,95.69513690185546L135.33333333333334,97.43448828124998L138.55555555555557,99.07730529785155L141.77777777777777,102.77780731201172L145,97.63006665039062L148.2222222222222,101.41923730468751L151.44444444444446,101.23079675292968L154.66666666666666,103.30811346435547L157.88888888888889,100.15008013916015L161.11111111111111,104.25334191894531L164.33333333333334,103.5408856201172L167.55555555555554,100.54142156982422L170.77777777777777,101.9219373779297L174,104.9627182006836L177.22222222222223,102.28736212158204L180.44444444444446,103.44427520751952L183.66666666666666,107.43486376953125L186.8888888888889,96.82654614257812L190.11111111111111,104.23939221191405L193.33333333333331,105.34217413330079L196.55555555555557,107.1250422973633L199.77777777777777,105.5104506225586L203,107.74081213378905L206.22222222222223,102.40445709228516L209.44444444444443,104.28284381103516L212.66666666666666,107.1025424194336L215.88888888888889,107.80100012207032L219.11111111111111,108.57344342041016L222.33333333333334,103.71004211425782L225.55555555555557,111.22733172607421L228.77777777777777,108.3201106567383L232,108.53953607177736L235.22222222222223,108.0122012939453L238.44444444444443,109.46803900146486L241.66666666666669,110.8837604370117L244.88888888888889,109.61516821289064L248.1111111111111,106.11136901855468L251.33333333333334,111.36677447509766L254.55555555555554,111.0347138671875L257.77777777777777,107.65193707275391L261,110.29213641357423L264.22222222222223,110.98164739990236L267.44444444444446,109.13100799560547L270.6666666666667,110.26678466796875" style="fill: none;" fill="none"></path></g></g></g></g></g></g><g transform="translate(40, 178)" clip-path="url(#clip_1)"><clipPath id="clip_1"><rect width="290" height="22"></rect></clipPath><g><g><line x1="0" y1="0" x2="0" y2="5" style="visibility: inherit;" fill="rgb(0, 0, 0)" stroke="rgb(204, 204, 204)" stroke-width="1px"></line><line x1="32.22222222222222" y1="0" x2="32.22222222222222" y2="5" style="visibility: inherit;" fill="rgb(0, 0, 0)" stroke="rgb(204, 204, 204)" stroke-width="1px"></line><line x1="64.44444444444444" y1="0" x2="64.44444444444444" y2="5" style="visibility: inherit;" fill="rgb(0, 0, 0)" stroke="rgb(204, 204, 204)" stroke-width="1px"></line><line x1="96.66666666666666" y1="0" x2="96.66666666666666" y2="5" style="visibility: inherit;" fill="rgb(0, 0, 0)" stroke="rgb(204, 204, 204)" stroke-width="1px"></line><line x1="128.88888888888889" y1="0" x2="128.88888888888889" y2="5" style="visibility: inherit;" fill="rgb(0, 0, 0)" stroke="rgb(204, 204, 204)" stroke-width="1px"></line><line x1="161.11111111111111" y1="0" x2="161.11111111111111" y2="5" style="visibility: inherit;" fill="rgb(0, 0, 0)" stroke="rgb(204, 204, 204)" stroke-width="1px"></line><line x1="193.33333333333331" y1="0" x2="193.33333333333331" y2="5" style="visibility: inherit;" fill="rgb(0, 0, 0)" stroke="rgb(204, 204, 204)" stroke-width="1px"></line><line x1="225.55555555555557" y1="0" x2="225.55555555555557" y2="5" style="visibility: inherit;" fill="rgb(0, 0, 0)" stroke="rgb(204, 204, 204)" stroke-width="1px"></line><line x1="257.77777777777777" y1="0" x2="257.77777777777777" y2="5" style="visibility: inherit;" fill="rgb(0, 0, 0)" stroke="rgb(204, 204, 204)" stroke-width="1px"></line><line x1="290" y1="0" x2="290" y2="5" style="visibility: inherit;" fill="rgb(0, 0, 0)" stroke="rgb(204, 204, 204)" stroke-width="1px"></line></g><g transform="translate(0, 8)"><text x="0" y="0" dx="0em" dy="0.95em" style="text-anchor: middle; visibility: hidden; font-family: Roboto, sans-serif; font-size: 12px; font-weight: 200;" fill="rgb(50, 49, 63)" stroke="none" stroke-width="1px">-10</text><text x="32.22222222222222" y="0" dx="0em" dy="0.95em" style="text-anchor: middle; visibility: inherit; font-family: Roboto, sans-serif; font-size: 12px; font-weight: 200;" fill="rgb(50, 49, 63)" stroke="none" stroke-width="1px">0</text><text x="64.44444444444444" y="0" dx="0em" dy="0.95em" style="text-anchor: middle; visibility: inherit; font-family: Roboto, sans-serif; font-size: 12px; font-weight: 200;" fill="rgb(50, 49, 63)" stroke="none" stroke-width="1px">10</text><text x="96.66666666666666" y="0" dx="0em" dy="0.95em" style="text-anchor: middle; visibility: inherit; font-family: Roboto, sans-serif; font-size: 12px; font-weight: 200;" fill="rgb(50, 49, 63)" stroke="none" stroke-width="1px">20</text><text x="128.88888888888889" y="0" dx="0em" dy="0.95em" style="text-anchor: middle; visibility: inherit; font-family: Roboto, sans-serif; font-size: 12px; font-weight: 200;" fill="rgb(50, 49, 63)" stroke="none" stroke-width="1px">30</text><text x="161.11111111111111" y="0" dx="0em" dy="0.95em" style="text-anchor: middle; visibility: inherit; font-family: Roboto, sans-serif; font-size: 12px; font-weight: 200;" fill="rgb(50, 49, 63)" stroke="none" stroke-width="1px">40</text><text x="193.33333333333331" y="0" dx="0em" dy="0.95em" style="text-anchor: middle; visibility: inherit; font-family: Roboto, sans-serif; font-size: 12px; font-weight: 200;" fill="rgb(50, 49, 63)" stroke="none" stroke-width="1px">50</text><text x="225.55555555555557" y="0" dx="0em" dy="0.95em" style="text-anchor: middle; visibility: inherit; font-family: Roboto, sans-serif; font-size: 12px; font-weight: 200;" fill="rgb(50, 49, 63)" stroke="none" stroke-width="1px">60</text><text x="257.77777777777777" y="0" dx="0em" dy="0.95em" style="text-anchor: middle; visibility: inherit; font-family: Roboto, sans-serif; font-size: 12px; font-weight: 200;" fill="rgb(50, 49, 63)" stroke="none" stroke-width="1px">70</text><text x="290" y="0" dx="0em" dy="0.95em" style="text-anchor: middle; visibility: hidden; font-family: Roboto, sans-serif; font-size: 12px; font-weight: 200;" fill="rgb(50, 49, 63)" stroke="none" stroke-width="1px">80</text></g><line x1="0" y1="0" x2="290" y2="0" fill="rgb(0, 0, 0)" stroke="rgb(204, 204, 204)" stroke-width="1px"></line></g></g></g></g></svg>